# xmcd
#
# Track frame offsets: 
#        150
#        13627
#        28655
#        42080
#        56257
#        75380
#        86820
#        104125
#        114370
#        130007
#
# Disc length: 1922 seconds
#
# Revision: 1
# Processed by: cddbd v1.5.2PL0 Copyright (c) Steve Scherf et al.
# Submitted via: ExactAudioCopy v0.99pb5
#
DISCID=7307800a
DTITLE=Marty Stuart - Let There Be Country
DYEAR=1992
DGENRE=Countryrock
TTITLE0=Let There Be Country
TTITLE1=Mirrors Don't Lie
TTITLE2=Matches
TTITLE3=Last Train Done Gone Down
TTITLE4=Be Careful Who You Love
TTITLE5=Old Hat
TTITLE6=Get Down On Your Knees And Pray
TTITLE7=I'm A One Woman Man
TTITLE8=Stone Blind
TTITLE9=I'll Love You Forever
EXTD=
EXTT0=
EXTT1=
EXTT2=
EXTT3=
EXTT4=
EXTT5=
EXTT6=
EXTT7=
EXTT8=
EXTT9=
PLAYORDER=
